<svg xmlns="http://www.w3.org/2000/svg" version="1.1" xmlns:xlink="http://www.w3.org/1999/xlink" xmlns:svgjs="http://svgjs.dev/svgjs" width="2000" height="1296" viewBox="0 0 2000 1296"><g transform="matrix(1,0,0,1,-0.4443777759021259,0.5256652709547325)"><svg viewBox="0 0 381 247" data-background-color="#ebefd8" preserveAspectRatio="xMidYMid meet" height="1296" width="2000" xmlns="http://www.w3.org/2000/svg" xmlns:xlink="http://www.w3.org/1999/xlink"><g id="tight-bounds" transform="matrix(1,0,0,1,0.08465396630936084,-0.09997365579206985)"><svg viewBox="0 0 380.8306920673813 247.2" height="247.2" width="380.8306920673813"><g><svg viewBox="0 0 380.8306920673813 247.2" height="247.2" width="380.8306920673813"><g><svg viewBox="0 0 380.8306920673813 247.2" height="247.2" width="380.8306920673813"><g id="textblocktransform"><svg viewBox="0 0 380.8306920673813 247.2" height="247.2" width="380.8306920673813" id="textblock"><g><svg viewBox="0 0 380.8306920673813 247.2" height="247.2" width="380.8306920673813"><path d="M379.939 53.02C378.149 27.36 373.046 20.227 373.046 20.227 357.38-6.202 337.83-0.506 320.266 3.292 289.257 3.446 258.373 9.091 227.436 12.119 162.499 12.581 97.007 4.986 32.393 23.717 26.324 29.464-6.297 24.846 1.08 56.304 3.013 69.39 10.067 83.913 9.852 95.922 10.819 98.026 12.162 93.202 12.735 96.23 14.74 104.39 18.016 100.541 20.702 105.365 16.96 118.246 19.646 128.971 22.206 140.21 17.694 143.135 11.911 141.749 9.315 151.449 9.047 158.479 7.597 157.145 6.003 156.837 4.839 156.632 2.494 157.402 2.888 159.608 4.231 167.152-1.534 171.514 2.082 178.904-0.406 186.91 3.801 193.838 3.228 202.511 3.156 204.255 3.55 205.744 4.177 206.154 6.952 208.361 2.906 212.672 3.335 217.342 31.802 249.262 62.686 227.195 91.851 241.872 99.424 231.608 93.731 245.516 96.757 243.36 99.12 240.846 100.839 251.263 103.506 245.362 103.918 243.668 103.292 239.665 104.76 240.435 105.53 240.846 106.21 240.743 106.317 238.382 106.478 234.841 105.064 237.048 104.688 235.201 108.752 225.861 107.75 248.081 111.563 247.158 111.384 244.438 110.274 240.538 112.548 241.051 114.804 237.151 114.875 233.918 116.881 242.693 116.952 244.592 117.31 245.926 117.883 246.85 124.149 237.305 130.38 250.237 136.951 245.926 140.979 241.205 144.846 248.492 148.928 246.696 150.36 245.259 151.811 242.693 153.189 247.004 170.072 247.928 188.065 244.079 204.071 247.158 246.843 241.41 292.551 249.518 337.651 241.923 348.285 238.998 359.332 234.841 369.698 231.506 369.698 231.506 378.095 222.371 378.095 181.316S379.885 145.393 380.154 112.703C380.422 80.013 381.676 78.679 379.885 53.02Z" opacity="1" fill="#d52814" data-fill-palette-color="tertiary"></path><g transform="matrix(1,0,0,1,55.768319999999974,26.230666666666668)"><svg width="269.2940520673813" viewBox="0.95 -32.3 45.15 32.65" height="194.73866666666666" data-palette-color="#ebefd8"><path d="M14.9-32.3Q18.5-32.3 21.95-30.75L21.95-30.75 20.9-27.2 20.2-27Q17.6-29.2 14.4-29.2L14.4-29.2Q12.5-29.2 11.05-28.45 9.6-27.7 8.8-26.48 8-25.25 8-23.9L8-23.9Q8-22.05 9.3-20.83 10.6-19.6 13.3-17.9L13.3-17.9Q15.5-16.55 16.88-15.48 18.25-14.4 19.23-12.78 20.2-11.15 20.2-9L20.2-9Q20.2-6.45 18.78-4.3 17.35-2.15 14.85-0.9 12.35 0.35 9.25 0.35L9.25 0.35Q7.2 0.35 4.98-0.25 2.75-0.85 0.95-1.9L0.95-1.9 1.9-5.75 2.4-5.95Q3.85-4.35 5.8-3.55 7.75-2.75 9.65-2.75L9.65-2.75Q12.6-2.75 14.5-4.38 16.4-6 16.4-8.3L16.4-8.3Q16.4-10.25 15.1-11.55 13.8-12.85 11.1-14.5L11.1-14.5Q8.95-15.8 7.6-16.85 6.25-17.9 5.3-19.5 4.35-21.1 4.35-23.25L4.35-23.25Q4.35-25.75 5.73-27.83 7.1-29.9 9.53-31.1 11.95-32.3 14.9-32.3L14.9-32.3ZM40.45-16.7Q46.1-15.05 46.1-10.05L46.1-10.05Q46.1-5.05 42.67-2.43 39.25 0.2 32.5 0.2L32.5 0.2Q28.2 0.2 25.75 0L25.75 0 25.7 0 27.15-9.65 29.75-32 29.8-32 37.95-32.1Q41.8-32.1 43.92-30.38 46.05-28.65 46.05-25.4L46.05-25.4Q46.05-22.3 44.6-20.08 43.15-17.85 40.45-16.7L40.45-16.7ZM42.2-24.75Q42.2-26.9 40.95-27.93 39.7-28.95 37.05-28.95L37.05-28.95 33.15-28.95 31.6-18 36.85-17.85Q42.2-19.05 42.2-24.75L42.2-24.75ZM33.35-2.95Q37.6-2.95 39.92-4.75 42.25-6.55 42.25-9.85L42.25-9.85Q42.25-14.25 37.05-14.85L37.05-14.85 31.15-14.8 30.5-9.95 29.8-3.1Q31.65-2.95 33.35-2.95L33.35-2.95Z" opacity="1" transform="matrix(1,0,0,1,0,0)" fill="#ebefd8" class="wordmark-text-0" data-fill-palette-color="quaternary" id="text-0"></path></svg></g></svg></g></svg></g></svg></g><g></g></svg></g><defs></defs></svg><rect width="380.8306920673813" height="247.2" fill="none" stroke="none" visibility="hidden"></rect></g></svg></g></svg>